<?xml version="1.0" standalone="no"?>
<!DOCTYPE svg PUBLIC "-//W3C//DTD SVG 20010904//EN"
 "http://www.w3.org/TR/2001/REC-SVG-20010904/DTD/svg10.dtd">
<svg version="1.0" xmlns="http://www.w3.org/2000/svg"
 width="862.000000pt" height="340.000000pt" viewBox="0 0 862.000000 340.000000"
 preserveAspectRatio="xMidYMid meet">
<metadata>
Created by potrace 1.16, written by Peter Selinger 2001-2019
</metadata>
<g transform="translate(0.000000,340.000000) scale(0.100000,-0.100000)"
fill="#000000" stroke="none">
<path d="M1065 2812 c-64 -27 -65 -28 -65 -100 0 -115 -20 -292 -47 -427 -15
-71 -26 -148 -25 -170 1 -22 -7 -67 -17 -100 -11 -33 -29 -109 -41 -170 -12
-60 -30 -128 -40 -150 -25 -51 -52 -174 -46 -201 3 -11 -3 -43 -14 -71 -29
-76 -39 -343 -16 -431 9 -35 16 -75 16 -90 0 -14 6 -33 14 -41 7 -9 18 -30 23
-47 12 -33 111 -164 126 -164 4 0 19 -13 33 -29 13 -16 39 -33 56 -37 18 -3
45 -16 61 -28 26 -19 41 -21 175 -21 217 1 293 22 459 127 71 44 155 94 189
109 34 16 71 40 84 54 12 13 35 27 51 30 15 4 47 27 71 51 38 40 85 74 103 74
3 0 3 -21 -1 -48 -5 -41 -3 -50 20 -75 16 -17 35 -27 53 -27 38 1 113 36 113
53 0 8 15 30 33 49 54 58 115 139 134 177 3 8 20 26 37 41 29 27 31 27 141 22
78 -3 114 -1 119 7 4 6 22 11 41 11 19 0 36 4 39 9 3 4 47 11 98 15 51 3 114
13 140 20 38 12 49 12 64 2 14 -11 22 -10 45 3 40 22 53 11 114 -97 59 -106
81 -132 108 -132 11 0 29 -8 39 -17 21 -19 134 -28 144 -12 3 5 26 9 51 9 66
0 121 19 148 52 l25 29 -23 34 c-23 36 -48 43 -153 49 -53 3 -92 24 -122 67
-19 27 -3 39 51 39 27 0 39 5 43 18 3 9 10 25 15 34 5 10 9 28 9 42 0 23 -3
24 -91 28 -129 6 -131 8 -189 258 -12 52 -31 115 -41 139 -12 26 -19 68 -19
105 -1 33 -8 79 -16 101 -9 22 -24 77 -34 122 -11 46 -28 112 -39 148 -11 36
-23 88 -27 117 -9 76 -24 94 -80 102 -25 3 -62 16 -81 27 l-35 22 -34 -37
c-18 -20 -31 -42 -28 -50 3 -8 -4 -31 -15 -52 -12 -22 -32 -75 -46 -120 -14
-44 -36 -97 -50 -118 -14 -20 -25 -46 -25 -56 0 -11 -8 -27 -19 -37 -10 -10
-21 -35 -25 -56 -8 -43 -132 -293 -158 -319 -10 -10 -18 -25 -18 -33 0 -7 -6
-18 -13 -22 -8 -4 -26 -33 -41 -63 -59 -121 -89 -154 -153 -174 -13 -4 -23
-13 -23 -19 0 -7 -17 -22 -38 -34 -21 -12 -74 -51 -118 -87 -44 -36 -100 -74
-125 -86 -62 -30 -133 -72 -153 -93 -10 -9 -24 -17 -32 -17 -8 0 -17 -7 -20
-15 -5 -13 -131 -85 -271 -155 -29 -14 -60 -33 -70 -42 -40 -35 -126 -63 -273
-88 -59 -10 -71 -9 -123 10 -72 27 -142 74 -180 122 -58 72 -93 287 -68 410 7
32 14 86 16 120 2 35 14 93 28 128 13 36 27 89 31 119 4 30 14 67 22 82 7 15
14 45 14 67 0 21 9 74 21 118 12 43 27 113 34 154 8 41 21 111 30 155 9 44 20
114 25 155 16 139 31 245 39 276 7 27 2 40 -36 97 -49 74 -60 78 -128 49z
m2049 -744 c8 -13 19 -43 26 -68 6 -25 18 -62 27 -83 9 -20 13 -40 10 -43 -3
-3 2 -27 12 -53 10 -25 28 -95 40 -156 13 -60 29 -137 37 -170 24 -95 25 -109
15 -125 -8 -12 -16 -13 -38 -5 -18 7 -76 8 -163 3 -74 -5 -139 -8 -145 -8 -43
2 -154 18 -164 24 -16 10 -5 64 19 91 10 11 23 36 29 56 6 19 49 103 95 185
45 82 89 167 96 189 7 22 26 56 41 76 20 25 29 48 29 73 0 41 13 46 34 14z"/>
<path d="M4838 2541 c-9 -15 -23 -21 -49 -21 -34 0 -36 -1 -57 -62 -11 -35
-26 -90 -32 -123 -7 -33 -21 -80 -32 -103 -11 -24 -23 -65 -26 -90 -3 -26 -13
-58 -24 -71 -11 -15 -16 -32 -12 -43 3 -12 -5 -44 -20 -78 -15 -33 -35 -90
-45 -127 -10 -37 -28 -90 -41 -117 -12 -27 -25 -68 -27 -90 -3 -23 -12 -49
-21 -58 -18 -21 -49 -104 -62 -166 -5 -24 -23 -62 -38 -85 -16 -23 -41 -63
-56 -89 -21 -38 -61 -70 -70 -56 -10 16 -46 117 -46 129 0 9 -6 32 -14 50 -7
19 -19 68 -26 109 -50 317 -127 611 -201 772 -30 63 -34 68 -64 68 -34 0 -65
-25 -65 -54 0 -9 17 -54 39 -99 51 -107 65 -157 91 -317 5 -30 18 -102 30
-160 12 -58 25 -132 29 -165 5 -33 16 -85 25 -115 9 -30 24 -136 32 -235 l16
-180 52 -47 c28 -26 57 -47 64 -48 29 -1 81 36 160 114 79 76 112 126 112 166
0 9 9 29 20 43 12 15 32 58 45 96 13 38 35 89 48 113 14 24 41 95 60 158 20
63 44 144 55 180 12 36 40 128 63 205 26 89 48 145 60 154 11 7 43 43 72 80
l52 66 -1 115 c-1 141 -16 194 -56 198 -19 2 -31 -3 -40 -17z"/>
<path d="M5728 2355 c-49 -13 -153 -63 -199 -96 -15 -10 -47 -27 -71 -38 -24
-10 -55 -32 -69 -47 -13 -16 -51 -47 -82 -68 -32 -22 -63 -46 -70 -55 -7 -9
-37 -37 -67 -61 -30 -25 -56 -48 -58 -52 -2 -3 -12 -16 -23 -29 -10 -12 -19
-26 -19 -30 0 -4 -23 -34 -51 -66 -105 -118 -161 -223 -189 -354 -11 -51 -10
-62 15 -145 26 -84 69 -179 97 -215 7 -9 33 -26 58 -39 25 -12 52 -28 60 -36
27 -23 150 -38 206 -25 27 6 67 13 89 15 79 6 171 34 217 65 25 17 75 42 111
56 63 23 175 97 230 151 52 51 127 158 136 194 5 19 14 53 19 75 6 22 17 60
26 85 33 96 58 219 65 320 4 58 11 112 15 122 9 20 -13 65 -65 131 -22 27 -39
52 -39 56 0 14 -91 71 -114 71 -12 0 -45 7 -72 15 -58 18 -93 18 -156 0z m61
-255 c19 -32 81 -70 114 -70 10 0 31 -7 48 -15 29 -16 29 -16 24 -83 -4 -37
-11 -89 -17 -117 -20 -89 -89 -259 -127 -310 -20 -27 -45 -63 -54 -78 -26 -40
-181 -139 -279 -178 -77 -31 -91 -33 -183 -31 -130 3 -156 12 -200 73 -40 57
-46 109 -20 196 21 71 151 264 232 346 74 74 217 187 236 187 7 0 23 8 37 18
18 13 153 87 168 91 1 1 11 -13 21 -29z"/>
<path d="M6945 2280 c-16 -6 -59 -9 -95 -8 -36 1 -94 -6 -130 -16 -78 -20
-228 -98 -253 -132 -14 -18 -28 -24 -57 -24 -63 0 -70 -21 -70 -210 0 -155 -1
-162 -29 -224 -26 -58 -28 -68 -19 -121 5 -32 6 -65 3 -73 -12 -31 -24 -288
-15 -327 5 -22 5 -44 0 -49 -10 -10 41 -164 75 -221 34 -60 101 -114 147 -121
21 -4 38 -10 38 -14 0 -15 37 -22 113 -20 74 1 83 4 186 58 104 55 170 99 220
145 35 32 106 144 153 242 l40 85 -23 47 c-22 43 -27 47 -63 47 -34 1 -44 -5
-77 -43 -25 -28 -39 -54 -39 -71 0 -15 -9 -35 -20 -45 -11 -10 -25 -32 -31
-50 -7 -18 -24 -40 -38 -48 -14 -9 -50 -36 -79 -61 -34 -29 -63 -46 -80 -46
-14 0 -36 -10 -50 -22 -19 -19 -35 -23 -82 -23 -53 0 -62 3 -94 34 -49 48 -70
116 -70 223 0 61 -4 89 -12 92 -10 4 -10 14 -3 38 5 18 9 59 9 90 0 87 17 100
150 113 141 13 171 18 176 26 3 5 20 9 39 9 19 0 83 16 142 36 59 19 132 38
161 41 49 5 55 9 77 48 66 111 -1 137 -255 100 -69 -10 -174 -21 -235 -25 -60
-5 -124 -11 -141 -15 -51 -11 -64 11 -64 111 0 47 5 94 10 105 16 30 74 54
225 94 77 20 149 42 160 48 11 5 38 9 60 9 22 -1 63 5 91 13 33 9 114 17 223
20 201 5 248 14 257 51 9 36 -10 70 -43 77 -52 12 -557 17 -588 7z"/>
<path d="M7528 1273 c-53 -4 -60 -7 -85 -40 -16 -20 -39 -49 -54 -66 -23 -27
-24 -34 -18 -90 6 -51 12 -64 38 -84 17 -14 31 -31 31 -39 0 -25 27 -27 102
-5 40 11 84 22 98 25 20 4 34 24 68 90 48 96 50 108 22 143 -11 14 -20 32 -20
39 0 7 -9 18 -19 24 -19 10 -43 10 -163 3z"/>
</g>
</svg>
