<?xml version="1.0" standalone="no"?>
<!DOCTYPE svg PUBLIC "-//W3C//DTD SVG 20010904//EN"
 "http://www.w3.org/TR/2001/REC-SVG-20010904/DTD/svg10.dtd">
<svg version="1.0" xmlns="http://www.w3.org/2000/svg"
 width="237.000000pt" height="90.000000pt" viewBox="0 0 237.000000 90.000000"
 preserveAspectRatio="xMidYMid meet">
<metadata>
Created by potrace 1.16, written by Peter Selinger 2001-2019
</metadata>
<g transform="translate(0.000000,90.000000) scale(0.100000,-0.100000)"
fill="#000000" stroke="none">
<path d="M0 450 l0 -450 1185 0 1185 0 0 450 0 450 -1185 0 -1185 0 0 -450z
m785 406 c35 -15 55 -42 55 -75 0 -28 -49 -81 -101 -110 l-43 -24 51 63 c70
86 77 130 22 130 -42 0 -110 -66 -228 -225 -54 -71 -107 -139 -117 -150 -61
-66 -69 -61 89 -60 177 0 207 -6 231 -46 l18 -30 -36 15 c-57 24 -188 39 -294
34 -87 -4 -105 -9 -172 -41 -78 -39 -95 -43 -105 -27 -7 11 12 51 29 62 6 4
34 12 63 18 67 14 108 55 222 219 131 189 202 261 259 261 12 0 38 -6 57 -14z
m495 -222 c0 -31 -193 -214 -226 -214 -27 0 -56 40 -49 67 5 23 1 21 -47 -21
-29 -25 -58 -46 -65 -46 -7 0 -22 9 -34 21 -19 19 -20 22 -4 46 20 30 11 26
-58 -29 -27 -21 -54 -38 -61 -38 -15 0 -56 37 -56 51 0 24 33 70 84 116 61 56
111 83 153 83 53 0 97 -51 58 -66 -12 -5 -13 -10 -5 -20 9 -10 2 -25 -29 -64
-70 -88 -45 -89 51 -1 29 27 65 72 78 100 27 55 38 61 64 32 16 -18 15 -22
-29 -87 -82 -123 -75 -154 16 -68 63 61 118 144 119 179 1 19 2 19 20 -4 11
-13 20 -29 20 -37z m223 18 c9 -8 17 -21 17 -29 0 -21 57 -15 98 11 53 33 79
39 112 26 45 -18 47 -41 7 -75 -34 -30 -115 -65 -149 -65 -18 0 -48 -36 -48
-57 0 -7 7 -13 15 -13 21 0 107 44 180 92 l60 39 -43 -40 c-55 -51 -141 -108
-174 -116 -17 -4 -35 -1 -52 10 -48 32 -43 69 17 133 l31 32 -26 0 c-19 0 -29
-7 -34 -22 -20 -67 -130 -158 -190 -158 -38 0 -84 34 -84 61 0 50 70 129 155
173 51 27 75 26 108 -2z"/>
</g>
</svg>
